<svg width="35" height="35" viewBox="0 0 35 35" fill="none" xmlns="http://www.w3.org/2000/svg">
	<path
		id="brush"
		d="M21.0661 24.7819L23.7782 22.0698L19.71 18.0016L24.2303 13.4815L21.5181 10.7694L16.998 15.2896L12.9298 11.2214L10.2178 13.9335L21.0661 24.7819ZM16.998 11.6735L20.6141 8.05733C21.1134 7.55804 21.9229 7.55804 22.4221 8.05733L26.9424 12.5775C27.4416 13.0768 27.4416 13.8863 26.9424 14.3855L23.3263 18.0016L26.4903 21.1658C26.9897 21.665 26.9897 22.4746 26.4903 22.9738L16.546 32.9182C16.0467 33.4174 15.2372 33.4174 14.7379 32.9182L2.0815 20.2617C1.58221 19.7625 1.58221 18.9529 2.0815 18.4537L12.0258 8.50934C12.5251 8.01006 13.3346 8.01006 13.8338 8.50934L16.998 11.6735Z"
		fill="white"/>
	<rect x="0.25" y="5.37207" width="29.378" height="29.378" rx="3.75" stroke="white" stroke-width="0.5"/>
	<path
		id="brush"
		d="M2.33691 18.2012L16.7961 32.6603L16.6479 32.8085C16.0622 33.3942 15.1124 33.3942 14.5266 32.8085L2.18879 20.4706C1.603 19.8848 1.603 18.9351 2.18879 18.3493L2.33691 18.2012Z"
		fill="#FC264D" fill-opacity="0.95"/>
	<rect x="24.7561" width="10.2439" height="10.2439" rx="5.12195" fill="#FC264D"/>
</svg>
