<svg width="35" height="25" viewBox="0 0 35 25" fill="none" xmlns="http://www.w3.org/2000/svg">
    <g clip-path="url(#clip0_228_26)">
        <path d="M35.0007 0H0V25.0005H35.0007V0Z" fill="#000066"/>
        <path d="M0 0V2.79514L31.0876 25.0006H35.0007V22.2055L3.91308 8.3335e-05L0 0ZM35.0007 0V2.79506L3.91308 25.0005H0V22.2054L31.0876 0H35.0007Z"
              fill="white"/>
        <path d="M14.5836 0V25.0005H20.4171V0H14.5836ZM0 8.3335V16.667H35.0007V8.3335H0Z" fill="white"/>
        <path d="M0 10.0002V15.0003H35.0007V10.0002H0ZM15.7503 0V25.0005H19.2504V0H15.7503Z" fill="#CC0000"/>
        <path d="M0 25.0005L11.6669 16.667H14.2756L2.60872 25.0005H0ZM0 0L11.6669 8.3335H9.05818L0 1.86345L0 0ZM20.7251 8.3335L32.392 0H35.0007L23.3338 8.3335H20.7251ZM35.0007 25.0005L23.3338 16.667H25.9425L35.0007 23.1371V25.0005Z"
              fill="#CC0000"/>
    </g>
    <defs>
        <clipPath id="clip0_228_26">
            <rect width="35" height="25" rx="7" fill="white"/>
        </clipPath>
    </defs>
</svg>
